# xmcd CD database file
#
# Track frame offsets:
#	150
#	14658
#	37989
#	56924
#	70359
#	88793
#	111538
#	135161
#	147372
#	164553
#
# Disc length: 2717 seconds
#
# Revision: 0
# Processed by: cddbd v1.5.2PL0 Copyright (c) Steve Scherf et al.
# Submitted via: CDex 1.51
#
DISCID=940a9b0a
DTITLE=Cyril Neville - Brand New Blues
DYEAR=2009
DGENRE=Blues
TTITLE0=I Found Joy
TTITLE1=Brand New Blues
TTITLE2=Shake Your Gumbo
TTITLE3=I'll Take Care Of You
TTITLE4=Cream Them Beans
TTITLE5=Cheatin and Lyin
TTITLE6=Mean Boss Blues
TTITLE7=Blue Blue Water
TTITLE8=Don't Move My Mountain
TTITLE9=Slave Driver
EXTD=YEAR: 2009
EXTT0=
EXTT1=
EXTT2=
EXTT3=
EXTT4=
EXTT5=
EXTT6=
EXTT7=
EXTT8=
EXTT9=
PLAYORDER=
